<?xml version="1.0" encoding="UTF-8" standalone="no"?>
<!-- Created with Inkscape (http://www.inkscape.org/) -->

<svg
   xmlns:dc="http://purl.org/dc/elements/1.1/"
   xmlns:cc="http://creativecommons.org/ns#"
   xmlns:rdf="http://www.w3.org/1999/02/22-rdf-syntax-ns#"
   xmlns:svg="http://www.w3.org/2000/svg"
   xmlns="http://www.w3.org/2000/svg"
   xmlns:sodipodi="http://sodipodi.sourceforge.net/DTD/sodipodi-0.dtd"
   xmlns:inkscape="http://www.inkscape.org/namespaces/inkscape"
   version="1.1"
   id="svg2"
   width="735"
   height="487"
   viewBox="0 0 735 487"
   sodipodi:docname="logoRed.svg"
   inkscape:version="0.92.4 (f8dce91, 2019-08-02)">
  <metadata
     id="metadata8">
    <rdf:RDF>
      <cc:Work
         rdf:about="">
        <dc:format>image/svg+xml</dc:format>
        <dc:type
           rdf:resource="http://purl.org/dc/dcmitype/StillImage" />
        <dc:title></dc:title>
      </cc:Work>
    </rdf:RDF>
  </metadata>
  <defs
     id="defs6" />
  <sodipodi:namedview
     pagecolor="#ffffff"
     bordercolor="#666666"
     borderopacity="1"
     objecttolerance="10"
     gridtolerance="10"
     guidetolerance="10"
     inkscape:pageopacity="0"
     inkscape:pageshadow="2"
     inkscape:window-width="1280"
     inkscape:window-height="736"
     id="namedview4"
     showgrid="false"
     inkscape:zoom="0.96919918"
     inkscape:cx="489.38717"
     inkscape:cy="217.44939"
     inkscape:window-x="0"
     inkscape:window-y="27"
     inkscape:window-maximized="1"
     inkscape:current-layer="svg2" />
  <path
     style="fill:#800000;stroke-width:2.06355929"
     d="m 234.70891,465.96102 c -6.36484,-15.28608 -23.60158,-56.05075 -59.06793,-139.69485 l -19.59215,-46.20628 38.19871,-95.14753 c 21.0093,-52.33114 38.87274,-95.846165 39.69655,-96.700053 1.72538,-1.788387 85.83871,206.062893 85.34661,210.898823 -0.40865,4.01591 -74.38569,178.00106 -76.64634,180.26303 -0.91256,0.9131 -4.48351,-5.12281 -7.93545,-13.41314 z"
     id="path3715"
     inkscape:connector-curvature="0" />
  <path
     style="fill:#d40000;stroke-width:2.06355929"
     d="M 66.644779,474.51547 C 63.971605,468.55694 48.279299,433.50222 31.772987,396.6161 L 1.76151,329.55042 27.976729,320.95089 C 73.591293,305.98767 154.76237,280.85672 155.40435,281.4987 c 0.33946,0.33946 19.31818,44.71963 42.17493,98.6226 22.85676,53.90297 42.0127,99.0333 42.56875,100.28962 1.76993,3.9989 -16.01483,4.93823 -93.49748,4.93823 H 71.505092 Z"
     id="path3717"
     inkscape:connector-curvature="0" />
  <path
     style="fill:#d40000;stroke-width:2.06355929"
     d="m 397.5275,475.54725 c -9.38639,-21.76319 -63.40254,-150.01097 -69.92808,-166.02666 -2.63886,-6.47657 -5.47336,-11.35814 -6.29888,-10.84795 -0.82553,0.51022 -2.13682,-1.61958 -2.91397,-4.73287 -1.91594,-7.67527 -30.42782,-79.67251 -59.69226,-150.73294 -13.22848,-32.12161 -23.50773,-59.28321 -22.84278,-60.359114 0.66494,-1.075905 2.31494,-1.959612 3.66665,-1.963791 1.95429,-0.006 134.36804,-39.028106 142.96037,-42.130128 1.24321,-0.448825 8.29184,13.6004 15.80258,31.497443 17.05419,40.63777 73.30973,175.07627 93.8239,224.21868 16.72959,40.07634 38.27643,91.4744 63.27148,150.92837 8.65539,20.58795 15.73705,37.99923 15.73705,38.69174 0,0.69251 -38.10567,1.25912 -84.67927,1.25912 h -84.67926 z"
     id="path3719"
     inkscape:connector-curvature="0" />
  <path
     style="fill:#d40000;stroke-width:2.06355929"
     d="m 625.43506,482.49901 c -18.39133,-6.00746 -36.41204,-22.18133 -44.70348,-40.1221 -4.36762,-9.45054 -4.45912,-11.61839 -4.45912,-105.64742 v -95.9989 l 6.72655,-13.66357 c 7.84177,-15.92889 19.05146,-26.85014 35.32876,-34.41969 16.62868,-7.73296 41.71681,-7.74168 58.02731,-0.0202 16.78964,7.94832 27.74483,18.53167 35.50974,34.30442 l 6.79323,13.79902 v 95.9989 95.9989 l -6.03747,11.92234 c -7.18168,14.18181 -22.33991,29.00169 -35.81723,35.01775 -12.19703,5.44456 -38.86668,6.91412 -51.36829,2.83053 z"
     id="path3723"
     inkscape:connector-curvature="0" />
  <path
     style="fill:#2650ce;fill-opacity:1;stroke-width:2.06355929"
     d="M 632.23152,163.20215 C 610.75037,158.15923 588.70933,140.49631 578.28156,119.96855 553.40274,70.992916 583.4665,12.584679 638.7102,2.5670864 c 35.19217,-6.381557 70.72327,12.6178316 87.56166,46.8214556 6.29037,12.777561 6.83111,15.439641 6.83111,33.630173 0,18.682665 -0.42155,20.607165 -7.77113,35.478035 -17.59302,35.59707 -55.1266,53.62014 -93.10032,44.7054 z"
     id="path3725"
     inkscape:connector-curvature="0" />
  <path
     style="fill:#800000;fill-opacity:1;stroke-width:2.06355929"
     d="m 627.8345,161.7856 c -24.40124,-8.43775 -40.03993,-22.27693 -50.83519,-44.98569 -18.42318,-38.754745 -0.70434,-88.504799 38.03345,-106.788402 43.17364,-20.377246 89.97653,-3.8103119 111.2391,39.375579 6.28273,12.760692 6.83111,15.451821 6.83111,33.52315 0,17.744923 -0.62745,20.972913 -6.47588,33.316393 -7.61365,16.06907 -17.8473,28.02586 -31.293,36.56213 -19.61928,12.45567 -46.95879,16.09968 -67.49959,8.99684 z"
     id="path3727"
     inkscape:connector-curvature="0" />
</svg>
